HIERARCHY
ROOT Hips
{
	OFFSET 0.000000 0.000000 0.000000
	CHANNELS 6 Xposition Yposition Zposition Zrotation Yrotation Xrotation 
	JOINT LHipJoint
	{
		OFFSET 0.000000 0.000000 0.000000
		CHANNELS 3 Zrotation Yrotation Xrotation
		JOINT LeftUpLeg
		{
			OFFSET 1.363060 -1.794630 0.839290
			CHANNELS 3 Zrotation Yrotation Xrotation
			JOINT LeftLeg
			{
				OFFSET 2.448110 -6.726130 0.000000
				CHANNELS 3 Zrotation Yrotation Xrotation
				JOINT LeftFoot
				{
					OFFSET 2.562200 -7.039590 0.000000
					CHANNELS 3 Zrotation Yrotation Xrotation
					JOINT LeftToeBase
					{
						OFFSET 0.157640 -0.433110 2.322550
						CHANNELS 3 Zrotation Yrotation Xrotation
						End Site
						{
							OFFSET 0.000000 0.000000 0.000000
						}
					}
				}
			}
		}
	}
	JOINT RHipJoint
	{
		OFFSET 0.000000 0.000000 0.000000
		CHANNELS 3 Zrotation Yrotation Xrotation
		JOINT RightUpLeg
		{
			OFFSET -1.305520 -1.794630 0.839290
			CHANNELS 3 Zrotation Yrotation Xrotation
			JOINT RightLeg
			{
				OFFSET -2.542530 -6.985550 0.000000
				CHANNELS 3 Zrotation Yrotation Xrotation
				JOINT RightFoot
				{
					OFFSET -2.568260 -7.056230 0.000000
					CHANNELS 3 Zrotation Yrotation Xrotation
					JOINT RightToeBase
					{
						OFFSET -0.164730 -0.452590 2.363150
						CHANNELS 3 Zrotation Yrotation Xrotation
						End Site
						{
							OFFSET 0.000000 0.000000 0.000000
						}
					}
				}
			}
		}
	}
	JOINT LowerBack
	{
		OFFSET 0.000000 0.000000 0.000000
		CHANNELS 3 Zrotation Yrotation Xrotation
		JOINT Spine
		{
			OFFSET 0.028270 2.035590 -0.193380
			CHANNELS 3 Zrotation Yrotation Xrotation
			JOINT Spine1
			{
				OFFSET 0.056720 2.048850 -0.042750
				CHANNELS 3 Zrotation Yrotation Xrotation
				JOINT Neck
				{
					OFFSET 0.000000 0.000000 0.000000
					CHANNELS 3 Zrotation Yrotation Xrotation
					JOINT Neck1
					{
						OFFSET -0.054170 1.746240 0.172020
						CHANNELS 3 Zrotation Yrotation Xrotation
						JOINT Head
						{
							OFFSET 0.104070 1.761360 -0.123970
							CHANNELS 3 Zrotation Yrotation Xrotation
							End Site
							{
								OFFSET 0.000000 0.000000 0.000000
							}
						}
					}
				}
				JOINT LeftShoulder
				{
					OFFSET 0.000000 0.000000 0.000000
					CHANNELS 3 Zrotation Yrotation Xrotation
					JOINT LeftArm
					{
						OFFSET 3.362410 1.200890 -0.311210
						CHANNELS 3 Zrotation Yrotation Xrotation
						JOINT LeftForeArm
						{
							OFFSET 4.983000 -0.000000 -0.000000
							CHANNELS 3 Zrotation Yrotation Xrotation
							JOINT LeftHand
							{
								OFFSET 3.483560 -0.000000 -0.000000
								CHANNELS 3 Zrotation Yrotation Xrotation
								JOINT LeftFingerBase
								{
									OFFSET 0.000000 0.000000 0.000000
									CHANNELS 3 Zrotation Yrotation Xrotation
									JOINT LeftHandIndex1
									{
										OFFSET 0.715260 -0.000000 -0.000000
										CHANNELS 3 Zrotation Yrotation Xrotation
										End Site
										{
											OFFSET 0.000000 0.000000 0.000000
										}
									}
								}
								JOINT LThumb
								{
									OFFSET 0.000000 0.000000 0.000000
									CHANNELS 3 Zrotation Yrotation Xrotation
									End Site
									{
										OFFSET 0.000000 0.000000 0.000000
									}
								}
							}
						}
					}
				}
				JOINT RightShoulder
				{
					OFFSET 0.000000 0.000000 0.000000
					CHANNELS 3 Zrotation Yrotation Xrotation
					JOINT RightArm
					{
						OFFSET -3.136600 1.374050 -0.404650
						CHANNELS 3 Zrotation Yrotation Xrotation
						JOINT RightForeArm
						{
							OFFSET -5.241900 -0.000000 -0.000000
							CHANNELS 3 Zrotation Yrotation Xrotation
							JOINT RightHand
							{
								OFFSET -3.444170 -0.000000 -0.000000
								CHANNELS 3 Zrotation Yrotation Xrotation
								JOINT RightFingerBase
								{
									OFFSET 0.000000 0.000000 0.000000
									CHANNELS 3 Zrotation Yrotation Xrotation
									JOINT RightHandIndex1
									{
										OFFSET -0.622530 -0.000000 -0.000000
										CHANNELS 3 Zrotation Yrotation Xrotation
										End Site
										{
											OFFSET 0.000000 0.000000 0.000000
										}
									}
								}
								JOINT RThumb
								{
									OFFSET 0.000000 0.000000 0.000000
									CHANNELS 3 Zrotation Yrotation Xrotation
									End Site
									{
										OFFSET 0.000000 0.000000 0.000000
									}
								}
							}
						}
					}
				}
			}
		}
	}
}
MOTION
Frames: 5
Frame Time: 0.008333
3.763433 18.146346 0.671205 15.387028 -77.063494 -10.369366 -5.121344 5.116732 5.293037 -17.365236 -12.369936 -9.834371 -0.169235 5.241738 18.864370 -3.079624 12.166121 -6.873722 0.021100 0.937800 2.577700 -1.927446 -5.897038 3.435823 15.639787 27.658209 -6.234668 -1.869867 -6.509519 24.633721 2.454334 -9.654279 -6.529058 -0.013700 0.755400 -2.076000 1.473457 3.591975 2.161955 -9.442031 4.101389 10.759426 2.928317 2.468010 -10.397983 -4.165272 -0.195481 -9.717321 4.307275 0.317850 -4.043762 2.524800 0.263500 0.211600 -6.873491 -0.552299 -1.043616 -71.998702 -0.007122 9.704885 12.295339 -19.442132 -2.270333 -0.754242 -1.162506 8.423419 19.546166 19.189045 7.297300 -7.125000 0.000000 0.000000 -8.503600 51.445700 -1.358300 9.415093 0.868283 -1.974497 68.057017 -6.137881 24.558821 -17.372198 23.522885 -4.687813 1.518584 -0.223787 13.987536 -30.982313 10.712772 -6.546500 7.125000 0.000000 0.000000 -3.832400 -17.748300 -2.487300 
3.763724 18.145569 0.676452 15.751665 -77.193320 -10.456959 -5.106501 5.065542 5.241290 -17.439452 -12.123728 -10.297518 -0.137295 5.309012 19.068999 -3.014446 11.955459 -6.841503 0.021500 0.947400 2.604200 -1.916615 -5.883436 3.410389 15.445225 27.884181 -6.519656 -1.873700 -6.512330 24.633663 2.476952 -9.718276 -6.489692 -0.014500 0.778800 -2.140300 1.276081 3.632531 2.188637 -9.371265 4.122869 10.487039 2.981854 2.496593 -10.350229 -4.310405 -0.306787 -9.410570 4.234588 0.202411 -5.176696 2.519000 0.198900 -0.091200 -6.871292 -0.580633 -1.042387 -71.084816 -0.228383 10.025800 12.342260 -19.558717 -2.300972 -0.746104 -1.171616 8.113570 19.455395 19.340998 7.313500 -7.125000 0.000000 0.000000 -8.648200 51.590600 -1.412600 9.375731 0.921403 -1.943541 67.262176 -5.878165 24.576229 -17.513349 23.768416 -4.786235 1.475154 -0.216779 14.122754 -30.648737 10.831969 -6.528700 7.125000 0.000000 0.000000 -3.556200 -17.650100 -2.315000 
3.759935 18.144986 0.679853 14.035401 -77.386545 -8.894285 -5.092278 5.074104 5.289476 -16.986023 -11.792190 -10.380528 -0.151210 5.319444 19.021149 -2.991565 11.856898 -6.661856 0.022900 0.977000 2.685500 -1.932563 -5.889736 3.406862 16.026413 28.057969 -6.312149 -1.898459 -6.519075 24.742037 2.494836 -9.773194 -6.563904 -0.014200 0.768200 -2.111200 1.334172 3.601486 2.443319 -8.820066 4.107919 10.505105 2.831714 2.487811 -10.425275 -4.341707 -0.365587 -9.115379 4.032450 0.148591 -6.340736 2.461500 0.166600 -0.409800 -6.919528 -0.601303 -1.059914 -70.132426 -0.482038 10.073583 12.379311 -19.668635 -2.329352 -0.736014 -1.180336 7.666381 19.349114 19.413318 7.296200 -7.125000 0.000000 0.000000 -8.780100 51.648900 -1.447000 9.292640 0.979458 -1.921216 66.392087 -5.539041 24.700739 -17.642894 23.994034 -4.872386 1.459513 -0.228277 14.298365 -30.792886 11.019703 -6.682300 7.125000 0.000000 0.000000 -3.626700 -17.404000 -2.380700 
3.744972 18.140322 0.696662 14.791747 -77.350298 -9.805583 -5.081981 5.088830 5.328226 -17.267907 -11.588475 -10.181810 -0.144112 5.313520 19.044316 -2.954387 11.744317 -6.683749 0.019400 0.898100 2.468500 -1.929026 -5.888157 3.421794 15.855774 27.885004 -6.159500 -1.909961 -6.558937 24.839496 2.425288 -9.576639 -6.637004 -0.015100 0.792100 -2.177000 1.190172 3.547375 2.496236 -8.917820 4.031818 10.696049 2.869598 2.444290 -10.340936 -4.398531 -0.392857 -8.874519 4.091877 0.132043 -7.455459 2.483300 0.149000 -0.711100 -6.866695 -0.651727 -1.077349 -69.067541 -0.799771 9.989144 12.418158 -19.780561 -2.360538 -0.726642 -1.181059 7.163282 19.263786 19.353884 7.241500 -7.125000 0.000000 0.000000 -8.840500 51.567100 -1.439300 9.232041 1.045639 -1.908301 65.557127 -5.139743 25.012936 -17.829449 24.279882 -4.986581 1.452944 -0.203803 14.185931 -30.999300 10.822300 -6.598400 7.125000 0.000000 0.000000 -3.785000 -17.632300 -2.466100 
3.733409 18.136630 0.722993 17.400374 -77.181322 -12.073707 -5.093693 5.048846 5.254866 -18.044268 -11.715401 -10.234371 -0.116993 5.309932 19.154477 -2.937859 11.726681 -6.898180 0.016300 0.825500 2.268900 -1.912746 -5.862688 3.419327 14.869987 27.518308 -6.677716 -1.898778 -6.601304 24.831166 2.322228 -9.257479 -6.450730 -0.020000 0.913100 -2.509800 0.979838 3.535729 2.255543 -9.645349 3.970403 10.535602 3.029001 2.410342 -10.077156 -4.369777 -0.471111 -8.666714 4.153243 0.038739 -8.498120 2.500500 0.091900 -0.983100 -6.754920 -0.721672 -1.066295 -67.880209 -1.192608 9.823170 12.436510 -19.856476 -2.384791 -0.711583 -1.177528 7.041815 18.902175 19.328716 7.085100 -7.125000 0.000000 0.000000 -9.198500 51.470500 -1.476400 9.224926 1.115705 -1.878420 64.789609 -4.748694 25.140900 -18.028912 24.568924 -5.104421 1.440386 -0.156883 13.875584 -31.010868 10.433829 -6.336200 7.125000 0.000000 0.000000 -3.822000 -18.124500 -2.448900 
